<svg width="242" height="242" viewBox="0 0 242 242" fill="none" xmlns="http://www.w3.org/2000/svg">
<circle cx="121" cy="121" r="116" fill="#8CC4D0" stroke="#00576A" stroke-width="10"/>
<mask id="path-2-inside-1_1_9" fill="white">
<path fill-rule="evenodd" clip-rule="evenodd" d="M92 38C86.4772 38 82 42.4772 82 48V120.25H60.4502C51.5255 120.25 47.0709 131.054 53.4022 137.344L114.452 197.998C118.352 201.872 124.648 201.872 128.548 197.998L189.598 137.344C195.929 131.054 191.475 120.25 182.55 120.25H160V48C160 42.4772 155.523 38 150 38H92Z"/>
</mask>
<path fill-rule="evenodd" clip-rule="evenodd" d="M92 38C86.4772 38 82 42.4772 82 48V120.25H60.4502C51.5255 120.25 47.0709 131.054 53.4022 137.344L114.452 197.998C118.352 201.872 124.648 201.872 128.548 197.998L189.598 137.344C195.929 131.054 191.475 120.25 182.55 120.25H160V48C160 42.4772 155.523 38 150 38H92Z" fill="white"/>
<path d="M82 120.25V128.25H90V120.25H82ZM53.4022 137.344L47.7638 143.019L47.7638 143.019L53.4022 137.344ZM114.452 197.998L108.814 203.673L108.814 203.673L114.452 197.998ZM128.548 197.998L122.91 192.322L122.91 192.322L128.548 197.998ZM189.598 137.344L183.959 131.669L183.959 131.669L189.598 137.344ZM160 120.25H152V128.25H160V120.25ZM90 48C90 46.8954 90.8954 46 92 46V30C82.0589 30 74 38.0589 74 48H90ZM90 120.25V48H74V120.25H90ZM82 112.25H60.4502V128.25H82V112.25ZM60.4502 112.25C44.3857 112.25 36.3675 131.697 47.7638 143.019L59.0406 131.669C57.7744 130.411 58.6652 128.25 60.4502 128.25V112.25ZM47.7638 143.019L108.814 203.673L120.09 192.322L59.0406 131.669L47.7638 143.019ZM108.814 203.673C115.833 210.647 127.167 210.647 134.186 203.673L122.91 192.322C122.13 193.097 120.87 193.097 120.09 192.322L108.814 203.673ZM134.186 203.673L195.236 143.019L183.959 131.669L122.91 192.322L134.186 203.673ZM195.236 143.019C206.632 131.697 198.614 112.25 182.55 112.25V128.25C184.335 128.25 185.226 130.411 183.959 131.669L195.236 143.019ZM182.55 112.25H160V128.25H182.55V112.25ZM152 48V120.25H168V48H152ZM150 46C151.105 46 152 46.8954 152 48H168C168 38.0589 159.941 30 150 30V46ZM92 46H150V30H92V46Z" fill="#00576A" mask="url(#path-2-inside-1_1_9)"/>
</svg>
