<svg width="100" height="102" viewBox="0 0 100 102" fill="none" xmlns="http://www.w3.org/2000/svg">
<path d="M92.4615 75.96C91.5572 74.9018 89.7485 74.6907 88.844 75.96C87.7134 77.4411 78.8969 89.5017 82.2881 96.9073C85.2268 103.043 96.0782 103.466 99.2432 96.9073C102.635 89.5019 93.5923 77.2295 92.4615 75.96ZM95.1745 95.003C93.8184 97.9653 87.9404 97.7535 86.5842 95.003C85.0017 91.829 87.9403 85.4819 90.8797 81.0378C93.5921 85.6937 96.5307 91.8298 95.1745 95.003Z" fill="black"/>
<path d="M17.6331 19.4657H2.26047C0.90431 19.4657 0 20.3121 0 21.5814V54.3777C0 55.647 0.904371 56.4934 2.26047 56.4934H17.8593C19.2155 56.4934 20.1198 55.6469 20.1198 54.3777V48.6652H40.692C41.1438 48.6652 41.3701 48.877 41.5963 49.088C44.7613 52.262 48.3788 53.9549 52.2217 53.9549C57.6472 53.9549 62.1689 50.3581 63.7514 48.877C74.3768 49.7234 78.2197 58.3981 79.5757 63.4768C80.4801 66.6509 83.6449 68.9783 87.0361 68.9783C87.2624 68.9783 100.826 70.4594 99.4703 60.7264C96.3045 35.7588 72.7943 29.6228 65.7842 28.3532C65.3324 28.3532 65.1061 27.9304 64.8798 27.5068C63.9754 25.3911 61.9411 24.121 59.4544 24.121H59.0026V14.8116H60.8113C62.62 16.7155 65.1068 17.7739 67.8192 17.7739C73.0192 17.7739 77.3138 13.7535 77.3138 8.88731C77.3138 4.02038 73.0183 0 67.8192 0C65.1062 0 62.6192 1.05825 60.8113 2.96225H43.4045C41.595 1.05832 39.1082 0 36.3958 0C31.1958 0 26.9012 4.02038 26.9012 8.88655C26.9012 13.7535 31.1966 17.7731 36.3958 17.7731C39.1088 17.7731 41.5958 16.7149 43.4037 14.8109H45.2124V24.121H44.7606C42.5002 24.121 40.4651 25.3903 39.5607 27.295C39.3344 27.7179 38.8826 27.9297 38.43 27.9297H20.1187V21.5816C19.8924 20.5241 18.9881 19.4659 17.632 19.4659L17.6331 19.4657ZM15.3726 52.4736H4.52095V23.6975H15.5981L15.5988 52.4736H15.3726ZM42.2746 10.5789C41.5966 10.5789 40.9185 11.0018 40.4659 11.4254C39.5616 12.6947 37.9792 13.5411 36.3967 13.5411C33.6837 13.5411 31.423 11.4254 31.423 8.88593C31.423 6.34724 33.6835 4.23154 36.3967 4.23154C37.9791 4.23154 39.5617 4.86619 40.4659 6.13546C40.9177 6.77012 41.5966 6.98191 42.2746 6.98191H61.9427C62.6208 6.98191 63.2989 6.55905 63.7515 6.13546C64.655 4.86615 66.2374 4.23154 67.8199 4.23154C70.5329 4.23154 72.7936 6.34724 72.7936 8.88669C72.7936 11.4259 70.5331 13.5418 67.8199 13.5418C66.2374 13.5418 64.6549 12.9072 63.7506 11.6379C63.2981 11.0025 62.62 10.5789 61.9419 10.5789H56.9682H56.7427H56.5164H47.6998H47.4735H47.2472H42.2746ZM49.7343 14.8111H54.4817V24.1212H49.7343V14.8111ZM38.4309 32.3724C40.6914 32.3724 42.7264 31.1031 43.6309 29.1984C43.8571 28.7755 44.3089 28.5637 44.7615 28.5637H59.4561C59.9079 28.5637 60.3605 28.7755 60.5868 29.4102C61.2649 31.1031 62.8473 32.3724 64.8823 32.5842C71.212 33.6425 92.2364 39.1433 95.4014 61.1487C95.6277 63.0527 94.0452 64.5346 92.2364 64.5346H87.489C85.9066 64.5346 84.776 63.4763 84.3241 62.2071C81.3854 51.2048 73.6987 44.8568 63.2998 44.434C62.6217 44.434 61.9436 44.6458 61.4911 45.0686C61.4911 45.0686 57.4218 49.512 52.4482 49.512C49.9614 49.512 47.4745 48.4537 45.214 46.1262C44.0833 45.0679 42.501 44.4333 40.9185 44.4333H20.3464V32.3727L38.4309 32.3724Z" fill="black"/>
</svg>
