<svg width="101" height="100" viewBox="0 0 101 100" fill="none" xmlns="http://www.w3.org/2000/svg">
<path d="M98.3679 99.0681C99.7362 99.0681 100.847 97.9607 100.847 96.5894V35.0947C100.847 33.7263 99.7385 32.6174 98.3679 32.6174H83.1451V14.9063C83.1451 13.5379 82.0347 12.4291 80.6663 12.4291H73.0021L73.0028 2.47875C73.0028 1.11041 71.8946 0 70.5241 0H31.3408C29.9747 0 28.8636 1.10891 28.8636 2.47722V12.4275H21.2009C19.8325 12.4275 18.7221 13.5365 18.7221 14.9048V32.6153L3.32693 32.6161C1.95859 32.6161 0.847412 33.725 0.847412 35.0933V96.5899C0.847412 97.9582 1.95633 99.0671 3.32693 99.0671M18.7229 94.1163H5.80492V37.5719H18.7236V94.1163H18.7229ZM33.8188 4.95691H68.048V12.4293L33.8188 12.43V4.95691ZM59.639 93.5808H42.2292V81.9053H59.6382V93.5808H59.639ZM78.0152 94.1162H64.5926V79.4287C64.5926 78.0611 63.4845 76.9499 62.1154 76.9499H39.7521C38.3838 76.9499 37.2749 78.0589 37.2749 79.4287V94.1162H23.6785V17.385H78.1883L78.0152 94.1162ZM95.8907 94.1162H83.1453V37.5717H95.8899L95.8907 94.1162Z" fill="white"/>
<path d="M55.6855 38.5235C54.4431 36.158 53.2157 34.0931 52.4059 32.7772C51.9268 32.0011 51.5489 31.4163 51.3195 31.0617C50.8929 30.4094 50.8899 30.4124 50.8434 30.4094C50.8036 30.4101 50.7984 30.4101 50.3725 31.0684C50.1401 31.4246 49.7659 32.0109 49.2846 32.7959C48.4741 34.1178 47.2467 36.1946 46.0043 38.5715C43.8322 42.7282 41.2439 48.5375 41.2439 52.6073C41.2439 55.173 42.2426 57.5828 44.0549 59.3965C45.8694 61.211 48.2815 62.2096 50.8449 62.2096C56.1383 62.2096 60.4487 57.9028 60.4487 52.6065C60.4502 48.473 57.8567 42.6668 55.6855 38.5235Z" fill="white"/>
</svg>
