<svg width="100" height="85" viewBox="0 0 100 85" fill="none" xmlns="http://www.w3.org/2000/svg">
<path d="M89.6992 25.9109C89.5407 24.643 88.4313 23.6128 87.0842 23.7715C85.8164 23.93 84.8655 25.0393 84.9448 26.3865L88.9859 66.1637C89.1444 67.3523 90.1745 68.3031 91.3631 68.3031H91.6008C92.8687 68.1446 93.8195 67.0353 93.7402 65.6881L89.6992 25.9109Z" fill="black"/>
<path d="M8.08169 74.485C9.27028 74.485 10.3004 73.5341 10.4589 72.3456L15.0548 26.3868C15.2132 25.119 14.2624 23.9305 12.9154 23.7718C11.5684 23.6131 10.459 24.5642 10.3004 25.9112L5.70451 71.87C5.54603 73.1378 6.4969 74.3263 7.84388 74.485H8.08169Z" fill="black"/>
<path d="M97.6231 14.2631H88.5107L88.0352 9.2711C87.4806 3.96215 83.1224 0 77.8133 0H22.3457C17.0367 0 12.5993 3.96197 12.1237 9.2711L11.6483 14.2631H2.37718C1.03011 14.2631 0 15.2932 0 16.6403C0 17.9873 1.03011 19.0175 2.37718 19.0175H13.4707H13.7084C14.897 19.0175 15.9271 18.0666 16.0856 16.8781L16.7987 9.74653C17.1157 6.89392 19.4929 4.75454 22.3455 4.75454H77.8131C80.6657 4.75454 83.0429 6.89392 83.3598 9.74653L84.073 16.8781V16.9573C84.073 17.0366 84.073 17.1158 84.1522 17.195C84.1522 17.2743 84.2315 17.3535 84.2315 17.4328C84.2315 17.512 84.3107 17.5912 84.3107 17.6705C84.3107 17.7497 84.3899 17.829 84.3899 17.9082C84.3899 17.9874 84.4692 17.9874 84.4692 18.0667C84.5484 18.1459 84.5484 18.2251 84.6277 18.2251L84.7861 18.3836C84.8654 18.4629 84.9446 18.4629 84.9446 18.5421C85.0239 18.6213 85.0239 18.6213 85.1031 18.6213C85.1823 18.7006 85.2616 18.7006 85.3408 18.7798C85.4201 18.7798 85.4993 18.8591 85.4993 18.8591C85.5785 18.8591 85.6578 18.9383 85.737 18.9383C85.8163 18.9383 85.8955 18.9383 85.9747 19.0175H86.2125H86.2917H97.6228C98.9699 19.0175 100 17.9874 100 16.6404C100 15.2933 98.9699 14.2632 97.6228 14.2632L97.6231 14.2631Z" fill="black"/>
<path d="M41.759 40.7299C41.3628 36.0549 37.4009 32.489 32.6465 32.489C27.8922 32.489 23.9302 36.0549 23.5341 40.7299L20.3645 72.1087H44.9278L41.759 40.7299Z" fill="black"/>
<path d="M76.6242 40.7299C76.228 36.0549 72.2661 32.489 67.5117 32.489C62.7574 32.489 58.7954 36.0549 58.3993 40.7299L55.2297 72.1087H79.793L76.6242 40.7299Z" fill="black"/>
<path d="M97.2265 75.5156C95.8795 75.5156 94.8494 76.5457 94.8494 77.8927C94.8494 79.2398 95.8795 80.2699 97.2265 80.2699C98.5736 80.2699 99.6037 79.2398 99.6037 77.8927C99.6037 76.5457 98.5736 75.5156 97.2265 75.5156Z" fill="black"/>
<path d="M89.1449 79.08C86.8468 79.0008 84.7868 78.0499 83.3603 76.3859C82.8849 75.8312 82.2509 75.5142 81.5379 75.5142C80.8248 75.5142 80.1908 75.8312 79.7155 76.3859C78.2892 78.1291 76.0705 79.08 73.6933 79.08C72.1877 79.08 70.8407 78.6838 69.5728 77.9706C68.8597 77.5744 68.2258 77.0198 67.6711 76.3859C67.5918 76.2274 67.4334 76.1481 67.2749 76.0689L67.1956 75.9897C67.1164 75.9104 66.9579 75.8312 66.8787 75.8312C66.7994 75.8312 66.7994 75.8312 66.7202 75.7519C66.641 75.7519 66.5617 75.6727 66.4032 75.6727H66.2448H65.9278H65.8486H65.7693C65.6109 75.6727 65.5316 75.6727 65.3731 75.7519C65.2147 75.7519 65.0562 75.8312 64.8977 75.9104C64.7392 75.9897 64.66 76.0689 64.5015 76.1481L64.1053 76.5443L63.8676 76.8613C62.4413 78.5253 60.2226 79.4763 57.9247 79.4763H57.8455C55.5475 79.4763 53.3288 78.4462 51.9026 76.7821L51.7441 76.6237C51.2687 76.069 50.6348 75.752 49.9217 75.752C49.2087 75.752 48.5747 76.069 48.0993 76.6237C46.673 78.3669 44.4543 79.3178 42.0771 79.3178C39.6999 79.3178 37.4812 78.3669 36.0549 76.6237C35.5795 76.069 34.9456 75.752 34.2325 75.752C33.5194 75.752 32.8854 76.069 32.4101 76.6237C30.9838 78.3669 28.7651 79.3178 26.3879 79.3178C24.0107 79.3178 21.792 78.3669 20.3657 76.6237C19.8903 76.069 19.2564 75.752 18.5433 75.752C17.8302 75.752 17.1962 76.069 16.7209 76.6237C15.2946 78.3669 13.0759 79.3178 10.6987 79.3178C8.32151 79.3178 6.1028 78.3669 4.67649 76.6237C3.80486 75.5936 2.29931 75.5143 1.34844 76.3859C0.318329 77.2576 0.239089 78.7631 1.11072 79.714C3.4879 82.4873 6.97444 84.0721 10.7779 84.0721C13.7099 84.0721 16.4038 83.1212 18.6225 81.4571C20.8412 83.2004 23.5354 84.0721 26.4671 84.0721C29.3989 84.0721 32.093 83.1212 34.3118 81.4571C36.5305 83.2004 39.2246 84.0721 42.1564 84.0721C45.009 84.0721 47.7823 83.1212 49.9218 81.4571C52.1405 83.2004 54.9138 84.2304 57.8458 84.2304H58.0042C60.9362 84.2304 63.7888 83.2003 66.0075 81.4571C66.0075 81.4571 66.0867 81.4571 66.0867 81.5363C66.166 81.6156 66.2452 81.6156 66.3245 81.6948C66.5622 81.8533 66.7999 82.091 67.1169 82.2495C67.1961 82.3287 67.3546 82.408 67.4338 82.4872C67.6715 82.6457 67.9885 82.8042 68.2262 82.8834C68.3054 82.9626 68.4639 82.9626 68.5432 83.0419C68.9394 83.2004 69.2563 83.3588 69.6525 83.5173C69.7318 83.5173 69.811 83.5173 69.811 83.5965C70.1279 83.6758 70.4449 83.755 70.8411 83.8343C70.9996 83.8343 71.0788 83.9135 71.2373 83.9135C71.5543 83.9927 71.792 83.9927 72.1089 84.072C72.2674 84.072 72.3467 84.072 72.5051 84.1512C72.9013 84.2305 73.3768 84.2305 73.773 84.2305C76.7049 84.2305 79.3989 83.2796 81.6176 81.6155C83.7569 83.2795 86.3719 84.2305 89.1452 84.2305C90.4923 84.2305 91.5224 83.2004 91.6016 81.9324C91.5223 80.1892 90.4922 79.0798 89.1452 79.0798L89.1449 79.08Z" fill="black"/>
</svg>
