<svg width="100" height="101" viewBox="0 0 100 101" fill="none" xmlns="http://www.w3.org/2000/svg">
<path d="M66.4443 39.1358V12.5144L61.7796 0H26.0045L21.5655 12.5395V46.4588H29.0892V57.7694H29.1143V72.2526C33.1645 69.1804 38.4436 68.4782 43.0582 70.1334H50.2182V74.6977L50.5693 74.9611L54.1431 72.2526C55.4597 71.2619 56.9018 70.5096 58.4065 70.008V57.7694H66.0932V69.5816C68.1998 70.0205 70.2312 70.8983 72.0244 72.2526L74.2815 73.9579V57.7694H82.1814V70.497C84.7645 69.3685 87.611 69.0174 90.3697 69.4312V57.7694H100V39.1358H66.4443ZM31.3212 7.5237H56.5632L58.4817 12.6649H29.4904L31.3212 7.5237ZM29.0766 38.9477V20.0506H58.9206V38.9477H49.353V28.6527H38.1678V38.9477H29.0766ZM50.2057 66.8982H37.29V63.8636H50.2057V66.8982ZM50.2057 60.6284H37.29V57.7694H50.2057V60.6284ZM92.4512 50.2457H36.6129V46.6469H92.4512V50.2457ZM98.4827 92.4286L94.7585 89.6072C90.8336 86.6228 85.3539 86.6353 81.429 89.6072L77.7048 92.4286C76.4508 93.3691 74.7078 93.3691 73.4664 92.4286L69.7422 89.6072C65.8173 86.6228 60.3376 86.6353 56.4127 89.6072L52.6885 92.4286C51.4345 93.3691 49.6916 93.3691 48.4501 92.4286L44.7259 89.6072C40.8011 86.6228 35.3213 86.6353 31.3964 89.6072L27.6722 92.4286C26.4183 93.3691 24.6753 93.3691 23.4339 92.4286L19.7096 89.6072C17.7888 88.1606 15.4495 87.3783 13.0449 87.3783C10.6403 87.3783 8.30097 88.1606 6.38015 89.6072L1.48975 93.2938C0.69491 93.8958 0.17175 94.7888 0.0353567 95.7765C-0.101037 96.7642 0.160509 97.7656 0.762457 98.5604C1.36441 99.3552 2.25745 99.8784 3.24512 100.015C4.2328 100.151 5.23421 99.8896 6.02904 99.2877L10.8944 95.6011C12.1483 94.6606 13.8913 94.6606 15.1327 95.6011L18.8569 98.4225C22.7818 101.407 28.2616 101.394 32.1864 98.4225L35.9107 95.6011C37.1521 94.6606 38.9076 94.6481 40.149 95.6011L43.8858 98.4225C47.8106 101.407 53.2904 101.394 57.2153 98.4225L60.9395 95.6011C62.1934 94.6606 63.9364 94.6481 65.1778 95.6011L68.9021 98.4225C70.8218 99.876 73.1652 100.66 75.5731 100.655C77.9305 100.655 80.2754 99.9147 82.2441 98.4225L85.9683 95.6011C87.2223 94.6606 88.9653 94.6606 90.2067 95.6011L93.9309 98.4225C95.5861 99.6764 97.9435 99.3504 99.1975 97.6952C100.464 96.04 100.138 93.6825 98.4827 92.4286ZM98.4827 78.0834L94.7585 75.262C90.8336 72.2776 85.3539 72.2902 81.429 75.262L77.7048 78.0834C76.4508 79.0239 74.7078 79.0239 73.4664 78.0834L69.7422 75.262C65.8173 72.2776 60.3376 72.2902 56.4127 75.262L52.6885 78.0834C51.4345 79.0239 49.6916 79.0239 48.4501 78.0834L44.7259 75.262C40.8011 72.2776 35.3213 72.2902 31.3964 75.262L27.6722 78.0834C26.4183 79.0239 24.6753 79.0239 23.4339 78.0834L19.7096 75.262C18.3081 74.1981 16.6682 73.4922 14.9321 73.2056V14.8593C14.9319 14.028 14.6016 13.2307 14.0137 12.643C13.4258 12.0552 12.6285 11.725 11.7972 11.725C10.9659 11.725 10.1686 12.0552 9.58072 12.643C8.99283 13.2307 8.66248 14.028 8.66234 14.8593V22.6714H7.18268C6.35135 22.6715 5.55413 23.0019 4.96635 23.5898C4.37856 24.1777 4.04836 24.9749 4.04836 25.8063C4.04836 26.6376 4.37856 27.4349 4.96635 28.0228C5.55413 28.6107 6.35135 28.941 7.18268 28.9411H8.6498V36.6279H7.18268C6.35135 36.628 5.55413 36.9583 4.96635 37.5462C4.37856 38.1341 4.04836 38.9314 4.04836 39.7627C4.04836 40.5941 4.37856 41.3913 4.96635 41.9792C5.55413 42.5671 6.35135 42.8975 7.18268 42.8976H8.6498V50.5843H7.18268C6.35135 50.5845 5.55413 50.9148 4.96635 51.5027C4.37856 52.0906 4.04836 52.8879 4.04836 53.7192C4.04836 54.5505 4.37856 55.3478 4.96635 55.9357C5.55413 56.5236 6.35135 56.8539 7.18268 56.8541H8.6498V64.5408H7.18268C6.35126 64.5408 5.55389 64.871 4.96599 65.4589C4.37808 66.0468 4.0478 66.8442 4.0478 67.6756C4.0478 68.5071 4.37808 69.3044 4.96599 69.8923C5.55389 70.4802 6.35126 70.8105 7.18268 70.8105H8.6498V73.9705C7.84727 74.309 7.06982 74.7228 6.35507 75.262L1.48975 78.9486C1.09618 79.2467 0.765181 79.6194 0.515636 80.0453C0.266091 80.4713 0.102892 80.9423 0.0353565 81.4313C-0.0321786 81.9204 -0.00272741 82.4179 0.122029 82.8956C0.246785 83.3732 0.464403 83.8217 0.762457 84.2152C1.06051 84.6088 1.43317 84.9398 1.85914 85.1893C2.28512 85.4389 2.75608 85.6021 3.24512 85.6696C3.73417 85.7372 4.23173 85.7077 4.7094 85.5829C5.18706 85.4582 5.63548 85.2406 6.02904 84.9425L10.8944 81.2559C12.1483 80.3154 13.8913 80.3154 15.1327 81.2559L18.8569 84.0773C22.7818 87.0617 28.2616 87.0491 32.1864 84.0773L35.9107 81.2559C37.1521 80.3154 38.9076 80.3029 40.149 81.2559L43.8858 84.0773C47.8106 87.0617 53.2904 87.0491 57.2153 84.0773L60.9395 81.2559C62.1934 80.3154 63.9364 80.3029 65.1778 81.2559L68.9021 84.0773C70.8218 85.5308 73.1652 86.3148 75.5731 86.3093C77.9305 86.3093 80.2754 85.5695 82.2441 84.0773L85.9683 81.2559C87.2223 80.3154 88.9653 80.3154 90.2067 81.2559L93.9309 84.0773C95.5861 85.3312 97.9435 85.0052 99.1975 83.35C100.464 81.6948 100.138 79.3374 98.4827 78.0834Z" fill="white"/>
</svg>
