<svg width="100" height="82" viewBox="0 0 100 82" fill="none" xmlns="http://www.w3.org/2000/svg">
<path d="M98.9155 15.8608L88.0638 11.6874C87.8549 11.6874 87.4377 11.4784 87.2288 11.4784H69.6996L69.7003 6.67829C69.7003 6.05224 69.4913 5.63512 69.0742 5.21728L64.9008 0.626045C64.4837 0.20892 63.8576 0 63.4398 0H49.6668C48.4147 0 47.5798 0.834965 47.5798 2.08705V11.4784H23.5808C18.7813 11.4784 15.0251 15.2347 15.0251 20.0342V23.7904H12.938C10.851 23.7904 9.18175 25.4596 9.18175 27.5467V36.1024H2.08705C0.834965 36.1024 0 36.9374 0 38.1895C0 39.4415 0.834965 40.2765 2.08705 40.2765H9.18247V48.8322C9.18247 50.9193 10.8517 52.5885 12.9387 52.5885H15.0258V56.3448C15.0258 61.1442 18.7821 64.9005 23.5815 64.9005H43.6149V69.0739H34.2243C32.9722 69.0739 32.1372 69.9088 32.1372 71.1609V79.5084C32.1372 80.7605 32.9722 81.5955 34.2243 81.5955H79.2995C80.5516 81.5955 81.3865 80.7605 81.3865 79.5084V71.1609C81.3865 69.9088 80.5516 69.0739 79.2995 69.0739H69.9088V64.9005H87.0209C87.2299 64.9005 87.4381 64.9005 87.8559 64.6915L98.7076 60.5181C99.5426 60.3092 99.9597 59.475 99.9597 58.64L99.959 17.7396C100.168 16.9046 99.5419 16.0697 98.9158 15.8615L98.9155 15.8608ZM32.1379 34.8496H85.1425V40.484H32.1379V34.8496ZM85.1425 30.6762H32.1379V25.0418H85.1425V30.6762ZM32.1379 44.4492H85.1425V50.0836H32.1379V44.4492ZM51.5453 4.17304H62.397L65.5272 7.51218V11.6856H51.5453V4.17304ZM85.1425 15.6508V20.6591H32.1379V15.6508H85.1425ZM13.3566 48.2051V27.9624H15.0258V48.2051H13.3566ZM19.1992 56.1348V20.2409C19.1992 17.9457 21.0773 15.8586 23.5815 15.8586H27.9638V60.5171H23.5815C21.0773 60.3089 19.1992 58.4307 19.1992 56.1348ZM32.1379 54.2566H85.1425V60.3082L32.1379 60.3089V54.2566ZM77.2132 77.2128H36.311V73.0394L77.2132 73.0387V77.2128ZM65.9444 68.8653H47.7891V64.6919H65.9444V68.8653ZM95.9945 56.9704L89.3162 59.4746V16.6943L95.9938 19.1985L95.9945 56.9704Z" fill="black"/>
</svg>
