<svg width="100" height="100" viewBox="0 0 100 100" fill="none" xmlns="http://www.w3.org/2000/svg">
<path d="M97.5204 99.0692C98.8888 99.0692 100 97.9618 100 96.5905V35.0951C100 33.7267 98.8911 32.6178 97.5204 32.6178H82.2975V14.9065C82.2975 13.5381 81.187 12.4292 79.8187 12.4292H72.1543L72.1551 2.47878C72.1551 1.11042 71.0469 0 69.6755 0H30.4938C29.1261 0 28.0165 1.10892 28.0165 2.47724V12.4277H20.3537C18.9853 12.4277 17.8764 13.5366 17.8764 14.9049V32.6157L2.47878 32.6165C1.11042 32.6165 0 33.7254 0 35.0937V96.591C0 97.9594 1.10893 99.0683 2.47878 99.0683M17.8757 94.1174H4.95679V37.5723H17.8757V94.1174ZM32.9725 4.95697H67.2021V12.4294L32.9725 12.4301V4.95697ZM58.7911 93.5819H41.3826V81.9063H58.7903L58.7911 93.5819ZM77.1683 94.1173H63.7463V79.4296C63.7463 78.062 62.6382 76.9508 61.2691 76.9508H38.9056C37.5372 76.9508 36.4283 78.0598 36.4283 79.4296V94.1173H22.8317V17.3852H77.3422L77.1683 94.1173ZM95.0439 94.1173H82.2984V37.5721H95.0432L95.0439 94.1173Z" fill="black"/>
<path d="M61.3773 51.0734L57.0609 53.5005L53.4611 51.1386C52.8868 50.76 52.1498 50.7352 51.5522 51.0734L47.2357 53.5006L43.6344 51.1387C43.0593 50.76 42.3231 50.7353 41.7255 51.0734L36.4351 54.0486C35.5503 54.5465 35.2377 55.6674 35.734 56.5506C36.0714 57.1512 36.696 57.4893 37.3378 57.4893C37.643 57.4893 37.9527 57.4121 38.2376 57.2516L42.5533 54.8245L46.153 57.1864C46.7176 57.556 47.4764 57.583 48.0642 57.2516L52.3799 54.8245L55.9797 57.1863C56.542 57.556 57.303 57.583 57.8901 57.2516L63.1805 54.2764C64.0638 53.7763 64.3779 52.6576 63.88 51.7721C63.3822 50.8881 62.2621 50.5733 61.3773 51.0734Z" fill="black"/>
<path d="M61.3773 43.194L57.0609 45.6225L53.4611 43.2598C52.8868 42.8827 52.1498 42.8587 51.5522 43.1946L47.2357 45.6231L43.6344 43.2604C43.0593 42.8833 42.3231 42.8585 41.7255 43.1952L36.4351 46.1719C35.5503 46.6705 35.2377 47.7907 35.734 48.6754C36.0714 49.2745 36.696 49.6127 37.3378 49.6127C37.643 49.6127 37.9527 49.5377 38.2376 49.375L42.5533 46.9486L46.153 49.3105C46.7176 49.6824 47.4764 49.7071 48.0642 49.3757L52.3799 46.9493L55.9797 49.3112C56.542 49.6831 57.303 49.7079 57.8901 49.378L63.1805 46.4005C64.0638 45.9026 64.3779 44.7825 63.88 43.8985C63.3822 43.0122 62.262 42.6958 61.3773 43.1937L61.3773 43.194Z" fill="black"/>
<path d="M37.3379 41.7333C37.6431 41.7333 37.9527 41.6568 38.2377 41.4971L42.5534 39.07L46.1531 41.4326C46.7162 41.8023 47.4765 41.8292 48.0643 41.4978L52.3786 39.0707L55.9784 41.4326C56.5415 41.8022 57.3017 41.8292 57.8896 41.4978L63.1794 38.5211C64.0642 38.0233 64.3768 36.9031 63.8789 36.0176C63.3811 35.1343 62.2609 34.8202 61.3769 35.318L57.0605 37.7452L53.4592 35.3825C52.8864 35.0054 52.1486 34.9806 51.551 35.3173L47.2345 37.7444L43.6348 35.3818C43.0597 35.0047 42.3234 34.9799 41.7243 35.3166L36.4345 38.2917C35.5513 38.7896 35.2371 39.9105 35.7335 40.7953C36.0724 41.3958 36.6953 41.7333 37.3379 41.7333Z" fill="black"/>
</svg>
