<svg width="367" height="278" viewBox="0 0 367 278" fill="none" xmlns="http://www.w3.org/2000/svg">
<path d="M64.9372 78.3251H8.32464C3.3303 78.3251 0 81.7311 0 86.8382V218.803C0 223.91 3.33052 227.316 8.32464 227.316H65.7705C70.7649 227.316 74.0952 223.91 74.0952 218.803V195.817H149.856C151.52 195.817 152.353 196.669 153.187 197.518C164.842 210.29 178.164 217.102 192.317 217.102C212.297 217.102 228.949 202.629 234.777 196.669C273.907 200.075 288.059 234.98 293.053 255.415C296.384 268.187 308.039 277.552 320.528 277.552C321.361 277.552 371.312 283.512 366.319 244.348C354.66 143.885 268.079 119.195 242.263 114.087C240.599 114.087 239.766 112.385 238.933 110.681C235.602 102.168 228.11 97.057 218.952 97.057H217.289V59.5984H223.95C230.61 67.2593 239.768 71.5177 249.757 71.5177C268.907 71.5177 284.723 55.3407 284.723 35.7604C284.723 16.177 268.904 0 249.757 0C239.766 0 230.608 4.25813 223.95 11.9194H159.846C153.182 4.25844 144.024 0 134.035 0C114.885 0 99.0688 16.177 99.0688 35.7573C99.0688 55.3407 114.888 71.5147 134.035 71.5147C144.026 71.5147 153.185 67.2566 159.843 59.5953H166.504V97.057H164.84C156.515 97.057 149.021 102.164 145.69 109.828C144.857 111.53 143.193 112.382 141.526 112.382H74.0911V86.8391C73.2578 82.584 69.9273 78.3261 64.9332 78.3261L64.9372 78.3251ZM56.6126 211.141H16.6493V95.3528H57.4429L57.4458 211.141H56.6126ZM155.685 42.567C153.187 42.567 150.69 44.2685 149.024 45.9729C145.693 51.0803 139.866 54.486 134.038 54.486C124.047 54.486 115.721 45.973 115.721 35.7548C115.721 25.5398 124.046 17.0267 134.038 17.0267C139.866 17.0267 145.694 19.5804 149.024 24.6876C150.688 27.2413 153.188 28.0935 155.685 28.0935H228.116C230.613 28.0935 233.111 26.392 234.777 24.6876C238.105 19.5802 243.932 17.0267 249.76 17.0267C259.751 17.0267 268.077 25.5398 268.077 35.7579C268.077 45.9752 259.752 54.4891 249.76 54.4891C243.932 54.4891 238.104 51.9354 234.774 46.8281C233.108 44.2715 230.61 42.567 228.113 42.567H209.797H208.966H208.133H175.664H174.831H173.997H155.685ZM183.156 59.5962H200.639V97.0579H183.156V59.5962ZM141.529 130.259C149.854 130.259 157.348 125.151 160.679 117.487C161.513 115.786 163.176 114.934 164.843 114.934H218.959C220.623 114.934 222.289 115.786 223.123 118.339C225.62 125.151 231.447 130.259 238.942 131.111C262.252 135.369 339.679 157.503 351.334 246.048C352.168 253.709 346.34 259.671 339.679 259.671H322.195C316.368 259.671 312.204 255.413 310.54 250.306C299.718 206.036 271.41 180.493 233.114 178.791C230.617 178.791 228.12 179.644 226.453 181.345C226.453 181.345 211.467 199.224 193.151 199.224C183.993 199.224 174.834 194.966 166.509 185.601C162.345 181.342 156.518 178.789 150.69 178.789H74.9294V130.26L141.529 130.259Z" fill="#32509C"/>
</svg>
